<svg xmlns="http://www.w3.org/2000/svg" xmlns:xlink="http://www.w3.org/1999/xlink" width="100%" height="100%" preserveAspectRatio="xMidYMid" viewBox="109.85 107.5 25.55 29.5"><clipPath id="21"><rect width="539.4" height="719.15" x=".3" y=".3"/></clipPath><g id="drawing"><rect width="100%" height="100%" x="109.85" y="107.5" fill="#FFF"/><g id="page" clip-path="url(#21)"><g id="Solid"><path fill="#000" fill-rule="evenodd" stroke="#000" stroke-linejoin="miter" stroke-width="0" d="M109.85 114.88 L109.85 114.88 L110.15 115.05 L110.45 115.22 L110.45 129.28 L110.15 129.45 L109.85 129.62 Z" shape-rendering="geometricPrecision"/><line x1="112.74" x2="112.74" y1="116.55" y2="127.95" stroke="#000" stroke-width=".6" shape-rendering="auto"/></g><g id="Solid"><path fill="#000" fill-rule="evenodd" stroke="#000" stroke-linejoin="miter" stroke-width="0" d="M109.85 129.62 L109.85 129.62 L110.15 129.45 L110.45 129.28 L122.63 136.3 L122.63 136.65 L122.63 137 Z" shape-rendering="geometricPrecision"/></g><g id="Solid"><path fill="#000" fill-rule="evenodd" stroke="#000" stroke-linejoin="miter" stroke-width="0" d="M122.63 137 L122.63 137 L122.63 136.65 L122.63 136.3 L134.8 129.28 L135.1 129.45 L135.4 129.62 Z" shape-rendering="geometricPrecision"/><line x1="122.63" x2="132.51" y1="133.66" y2="127.95" stroke="#000" stroke-width=".6" shape-rendering="auto"/></g><g id="Solid"><path fill="#000" fill-rule="evenodd" stroke="#000" stroke-linejoin="miter" stroke-width="0" d="M135.4 129.62 L135.4 129.62 L135.1 129.45 L134.8 129.28 L134.8 115.22 L135.1 115.05 L135.4 114.88 Z" shape-rendering="geometricPrecision"/></g><g id="Solid"><path fill="#000" fill-rule="evenodd" stroke="#000" stroke-linejoin="miter" stroke-width="0" d="M135.4 114.88 L135.4 114.88 L135.1 115.05 L134.8 115.22 L122.63 108.2 L122.63 107.85 L122.63 107.5 Z" shape-rendering="geometricPrecision"/><line x1="132.51" x2="122.63" y1="116.55" y2="110.84" stroke="#000" stroke-width=".6" shape-rendering="auto"/></g><g id="Solid"><path fill="#000" fill-rule="evenodd" stroke="#000" stroke-linejoin="miter" stroke-width="0" d="M122.63 107.5 L122.63 107.5 L122.63 107.85 L122.63 108.2 L110.45 115.22 L110.15 115.05 L109.85 114.88 Z" shape-rendering="geometricPrecision"/></g></g></g></svg>