<svg width="24px" height="24px" viewBox="0 0 24 24" version="1.1" xmlns="http://www.w3.org/2000/svg" xmlns:xlink="http://www.w3.org/1999/xlink">
    <g stroke="none" stroke-width="1" fill="none" fill-rule="evenodd">
        <polygon stroke="#00758E" points="12 3 19.7942286 7.5 19.7942286 16.5 12 21 4.20577137 16.5 4.20577137 7.5"></polygon>
        <path d="M9.23,8.71 L10.25,8.71 L10.355,9.76 L10.4,9.76 C10.7500017,9.40999825 11.1174981,9.11750118 11.5025,8.8825 C11.8875019,8.64749883 12.3349974,8.53 12.845,8.53 C13.6150039,8.53 14.1774982,8.7699976 14.5325,9.25 C14.8875018,9.7300024 15.065,10.4399953 15.065,11.38 L15.065,16 L13.835,16 L13.835,11.545 C13.835,10.8549965 13.7250011,10.3575015 13.505,10.0525 C13.2849989,9.74749848 12.9350024,9.595 12.455,9.595 C12.0749981,9.595 11.7400014,9.68999905 11.45,9.88 C11.1599985,10.0700009 10.8300018,10.3499982 10.46,10.72 L10.46,16 L9.23,16 L9.23,8.71 Z" id="n" fill="#00758E"></path>
    </g>
</svg>