
<svg width="24px" height="24px" viewBox="0 0 24 24" version="1.1" xmlns="http://www.w3.org/2000/svg" xmlns:xlink="http://www.w3.org/1999/xlink">
    <defs>
        <path d="M12.6923076,10.2144866 C12.6923076,7.54642238 10.3631971,5.37604558 7.5,5.37604558 L7.5,8.60167292 L1.73076924,4.30083646 L7.5,5.68434189e-12 L7.5,3.22562735 C11.6353846,3.22562735 15,6.36097072 15,10.2144866 C15,14.0680361 11.6353846,17.2033458 7.5,17.2033458 C7.26179909,17.2033458 6.92723993,17.187739 6.49632252,17.1565255 L4.54514393,24 L2.49771443,23.4866612 C3.79962364,18.9142424 4.44271909,16.6151761 4.42700078,16.5894623 C1.81951259,15.493672 -3.7866685e-12,13.0482816 -3.97903932e-12,10.2144866 L2.3076923,10.2144866 C2.3076923,12.8825508 4.63680288,15.0529276 7.5,15.0529276 C10.3631971,15.0529276 12.6923076,12.8825508 12.6923076,10.2144866 Z" id="path-3"></path>
    </defs>
    <g stroke="none" stroke-width="1" fill="none" fill-rule="evenodd">
        <g id="reset" transform="translate(12.142305, 11.629165) rotate(-60.000000) translate(-12.142305, -11.629165) translate(4.642305, -0.370835)">
            <mask id="mask-4" fill="white">
                <use xlink:href="#path-3"></use>
            </mask>
            <use id="Mask" fill="#00758E" xlink:href="#path-3"></use>
            <g mask="url(#mask-4)" fill="#00758E">
                <g transform="translate(5.277568, 11.705771) rotate(-30.000000) translate(-5.277568, -11.705771) translate(-5.222432, 0.705771)" id="Rectangle-2">
                    <rect x="0" y="0" width="21" height="22"></rect>
                </g>
            </g>
        </g>
    </g>
</svg>