
<svg width="24px" height="24px" viewBox="0 0 24 24" version="1.1" xmlns="http://www.w3.org/2000/svg" xmlns:xlink="http://www.w3.org/1999/xlink">
    <defs>
        <path d="M6.08903461,9.16194272 L14.2720077,9.16194272 L14.2720077,11.207686 L6.08903461,11.207686 L6.08903461,9.16194272 Z M10.1805212,1.92001153 C6.63839529,1.96772803 3.5291868,4.28921296 2.47703836,7.67180312 C1.42488992,11.0543933 2.66874785,14.7298915 5.55886391,16.778345 C8.44897996,18.8267985 12.3289994,18.7829969 15.1721347,16.6698205 L20.6649554,22.1626412 L22.1072044,20.7203922 L16.6348412,15.248029 C18.6281346,12.7832265 19.0185634,9.38892555 17.6369492,6.535925 C16.2553349,3.68292445 13.3502548,1.88453001 10.1805212,1.92001153 Z M10.1805212,16.3220442 C6.79102272,16.3220442 4.04329133,13.5743128 4.04329133,10.1848144 C4.04329133,6.79531592 6.79102272,4.04758453 10.1805212,4.04758453 C13.5700196,4.04758453 16.317751,6.79531592 16.317751,10.1848144 C16.317751,13.5743128 13.5700196,16.3220442 10.1805212,16.3220442 Z" id="path-2"></path>
    </defs>
    <g stroke="none" stroke-width="1" fill="none" fill-rule="evenodd">
        <mask id="mask-3" fill="white">
            <use xlink:href="#path-2"></use>
        </mask>
        <use id="Mask" fill="#00758E" fill-rule="nonzero" xlink:href="#path-2"></use>
        <g mask="url(#mask-3)" fill="#00758E">
            <g transform="translate(4.000000, 3.000000)" id="Rectangle-2">
                <rect x="0" y="0" width="21" height="22"></rect>
            </g>
        </g>
    </g>
</svg>