<svg width="24px" height="24px" viewBox="0 0 24 24" version="1.1" xmlns="http://www.w3.org/2000/svg" xmlns:xlink="http://www.w3.org/1999/xlink">
    <defs>
        <path d="M9.20339279,5.17457105 L7.07581979,5.17457105 L7.07581979,7.9941051 L4.22200792,7.9941051 L4.22200792,10.0961233 L7.07581979,10.0961233 L7.07581979,12.9156574 L9.20339279,12.9156574 L9.20339279,10.0961233 L12.0572047,10.0961233 L12.0572047,7.9941051 L9.20339279,7.9941051 L9.20339279,5.17457105 Z M8.18052115,0.920005336 C4.63839529,0.9671487 1.5291868,3.26074972 0.477038359,6.60271078 C-0.575110078,9.94467184 0.668747851,13.5760228 3.55886391,15.5998718 C6.44897996,17.6237208 10.3289994,17.5804453 13.1721347,15.4926508 L18.6649554,20.919496 L20.1072044,19.4945701 L14.6348412,14.0879368 C16.6281346,11.6527396 17.0185634,8.29920844 15.6369492,5.48047596 C14.2553349,2.66174349 11.3502548,0.884949991 8.18052115,0.920005336 Z M8.18052115,15.1490517 C4.79102272,15.1490517 2.04329133,12.434324 2.04329133,9.08553763 C2.04329133,5.73675128 4.79102272,3.02202355 8.18052115,3.02202355 C11.5700196,3.02202355 14.317751,5.73675128 14.317751,9.08553763 C14.317751,12.434324 11.5700196,15.1490517 8.18052115,15.1490517 Z" id="path-1"></path>
    </defs>
    <g stroke="none" stroke-width="1" fill="none" fill-rule="evenodd">
        <g transform="translate(2.000000, 1.000000)">
            <mask id="mask-2" fill="white">
                <use xlink:href="#path-1"></use>
            </mask>
            <use id="Mask" fill="#00758E" fill-rule="nonzero" xlink:href="#path-1"></use>
            <g mask="url(#mask-2)" fill="#00758E">
                <g transform="translate(-1.000000, -1.000000)" id="Rectangle-2">
                    <rect x="0" y="0" width="22" height="23"></rect>
                </g>
            </g>
        </g>
    </g>
</svg>