<?xml version="1.0"?><svg xmlns="http://www.w3.org/2000/svg" xmlns:xlink="http://www.w3.org/1999/xlink" viewBox="109.85 107.5 25.55 29.5" preserveAspectRatio="xMidYMid" width="100%" height="100%"><clipPath id="21"><rect x="0.3" y="0.3" width="539.4" height="719.15" /></clipPath><g id="drawing"><rect x="109.85" y="107.5" width="100%" height="100%" fill="rgb(255, 255, 255)" /><g id="page" clip-path="url(#21)"><g id="Solid"><path d="M109.85 114.88 L109.85 114.88 L110.15 115.05 L110.45 115.22 L110.45 129.28 L110.15 129.45 L109.85 129.62 Z" stroke="rgb(0, 0, 0)" stroke-width="0" fill-rule="evenodd" stroke-linejoin="miter" fill="rgb(0, 0, 0)" shape-rendering="geometricPrecision" /><line x1="112.74" y1="116.55" x2="112.74" y2="127.95" stroke="rgb(0, 0, 0)" stroke-width="0.6" shape-rendering="auto" /></g><g id="Solid"><path d="M109.85 129.62 L109.85 129.62 L110.15 129.45 L110.45 129.28 L122.63 136.3 L122.63 136.65 L122.63 137 Z" stroke="rgb(0, 0, 0)" stroke-width="0" fill-rule="evenodd" stroke-linejoin="miter" fill="rgb(0, 0, 0)" shape-rendering="geometricPrecision" /></g><g id="Solid"><path d="M122.63 137 L122.63 137 L122.63 136.65 L122.63 136.3 L134.8 129.28 L135.1 129.45 L135.4 129.62 Z" stroke="rgb(0, 0, 0)" stroke-width="0" fill-rule="evenodd" stroke-linejoin="miter" fill="rgb(0, 0, 0)" shape-rendering="geometricPrecision" /><line x1="122.63" y1="133.66" x2="132.51" y2="127.95" stroke="rgb(0, 0, 0)" stroke-width="0.6" shape-rendering="auto" /></g><g id="Solid"><path d="M135.4 129.62 L135.4 129.62 L135.1 129.45 L134.8 129.28 L134.8 115.22 L135.1 115.05 L135.4 114.88 Z" stroke="rgb(0, 0, 0)" stroke-width="0" fill-rule="evenodd" stroke-linejoin="miter" fill="rgb(0, 0, 0)" shape-rendering="geometricPrecision" /></g><g id="Solid"><path d="M135.4 114.88 L135.4 114.88 L135.1 115.05 L134.8 115.22 L122.63 108.2 L122.63 107.85 L122.63 107.5 Z" stroke="rgb(0, 0, 0)" stroke-width="0" fill-rule="evenodd" stroke-linejoin="miter" fill="rgb(0, 0, 0)" shape-rendering="geometricPrecision" /><line x1="132.51" y1="116.55" x2="122.63" y2="110.84" stroke="rgb(0, 0, 0)" stroke-width="0.6" shape-rendering="auto" /></g><g id="Solid"><path d="M122.63 107.5 L122.63 107.5 L122.63 107.85 L122.63 108.2 L110.45 115.22 L110.15 115.05 L109.85 114.88 Z" stroke="rgb(0, 0, 0)" stroke-width="0" fill-rule="evenodd" stroke-linejoin="miter" fill="rgb(0, 0, 0)" shape-rendering="geometricPrecision" /></g></g></g></svg>